<svg width="100" height="25" viewBox="0 0 100 25" fill="none" xmlns="http://www.w3.org/2000/svg">
<path d="M4.52 14.82V11.98H7.14C7.64667 11.98 8.08 11.88 8.44 11.68C8.81333 11.48 9.1 11.2 9.3 10.84C9.5 10.4667 9.6 10.04 9.6 9.56C9.6 9.05333 9.5 8.62 9.3 8.26C9.1 7.88667 8.81333 7.60667 8.44 7.42C8.08 7.22 7.64667 7.12 7.14 7.12H4.52V4.28H6.98C8.22 4.28 9.28 4.48667 10.16 4.9C11.0533 5.31333 11.7333 5.9 12.2 6.66C12.68 7.42 12.92 8.33333 12.92 9.4V9.72C12.92 10.76 12.68 11.6667 12.2 12.44C11.7333 13.2 11.0533 13.7867 10.16 14.2C9.28 14.6133 8.22 14.82 6.98 14.82H4.52ZM1.64 19V4.28H4.92V19H1.64ZM14.8975 19V8.04H17.4375V12.74H17.3775C17.3775 11.1933 17.7042 10 18.3575 9.16C19.0242 8.32 19.9842 7.9 21.2375 7.9H21.6575V10.66H20.8575C19.9775 10.66 19.2975 10.9 18.8175 11.38C18.3375 11.8467 18.0975 12.5267 18.0975 13.42V19H14.8975ZM23.8355 19V8.04H27.0355V19H23.8355ZM22.3755 10.4V8.04H27.0355V10.4H22.3755ZM25.0755 6.96C24.4755 6.96 24.0288 6.80667 23.7355 6.5C23.4555 6.18 23.3155 5.78 23.3155 5.3C23.3155 4.80667 23.4555 4.40667 23.7355 4.1C24.0288 3.78 24.4755 3.62 25.0755 3.62C25.6755 3.62 26.1155 3.78 26.3955 4.1C26.6888 4.40667 26.8355 4.80667 26.8355 5.3C26.8355 5.78 26.6888 6.18 26.3955 6.5C26.1155 6.80667 25.6755 6.96 25.0755 6.96ZM34.9752 19.14C33.8685 19.14 32.9752 19.0067 32.2952 18.74C31.6152 18.46 31.1152 18 30.7952 17.36C30.4885 16.7067 30.3352 15.8267 30.3352 14.72V5.08H33.3152V14.84C33.3152 15.36 33.4485 15.76 33.7152 16.04C33.9952 16.3067 34.3885 16.44 34.8952 16.44H36.5152V19.14H34.9752ZM28.6752 10.38V8.04H36.5152V10.38H28.6752ZM38.667 19V4.4H41.867V12.82H41.387C41.387 11.7133 41.527 10.78 41.807 10.02C42.087 9.26 42.5004 8.68667 43.047 8.3C43.5937 7.9 44.2804 7.7 45.107 7.7H45.247C46.4604 7.7 47.387 8.13333 48.027 9C48.667 9.85333 48.987 11.1067 48.987 12.76V19H45.787V12.56C45.787 11.96 45.607 11.48 45.247 11.12C44.9004 10.7467 44.4404 10.56 43.867 10.56C43.267 10.56 42.7804 10.7533 42.407 11.14C42.047 11.5267 41.867 12.04 41.867 12.68V19H38.667ZM55.6558 19L57.6558 8.4H61.1558L63.4758 19H60.9958L58.6158 8.48H60.0358L57.8958 19H55.6558ZM54.8958 19L54.8758 16.34H57.0758L57.0958 19H54.8958ZM53.4558 19L50.5158 8.04H53.6558L56.3958 19H53.4558ZM61.8158 19L61.8358 16.34H64.0358V19H61.8158ZM62.7158 19L65.1558 8.04H68.0958L65.4558 19H62.7158ZM70.5933 19V8.04H73.7933V19H70.5933ZM69.1333 10.4V8.04H73.7933V10.4H69.1333ZM71.8333 6.96C71.2333 6.96 70.7866 6.80667 70.4933 6.5C70.2133 6.18 70.0733 5.78 70.0733 5.3C70.0733 4.80667 70.2133 4.40667 70.4933 4.1C70.7866 3.78 71.2333 3.62 71.8333 3.62C72.4333 3.62 72.8733 3.78 73.1533 4.1C73.4466 4.40667 73.5933 4.80667 73.5933 5.3C73.5933 5.78 73.4466 6.18 73.1533 6.5C72.8733 6.80667 72.4333 6.96 71.8333 6.96ZM80.913 19.34C79.353 19.34 78.133 19.02 77.253 18.38C76.373 17.74 75.9063 16.84 75.853 15.68H78.693C78.7463 16.0267 78.953 16.34 79.313 16.62C79.6863 16.8867 80.2396 17.02 80.973 17.02C81.533 17.02 81.993 16.9267 82.353 16.74C82.7263 16.54 82.913 16.26 82.913 15.9C82.913 15.58 82.773 15.3267 82.493 15.14C82.213 14.94 81.713 14.8 80.993 14.72L80.133 14.64C78.813 14.5067 77.8196 14.14 77.153 13.54C76.4996 12.94 76.173 12.1733 76.173 11.24C76.173 10.4667 76.3663 9.82 76.753 9.3C77.1396 8.78 77.673 8.38667 78.353 8.12C79.0463 7.85333 79.833 7.72 80.713 7.72C82.1263 7.72 83.2663 8.03333 84.133 8.66C84.9996 9.27333 85.453 10.1667 85.493 11.34H82.653C82.5996 10.98 82.413 10.68 82.093 10.44C81.773 10.1867 81.2996 10.06 80.673 10.06C80.1796 10.06 79.7863 10.1533 79.493 10.34C79.1996 10.5267 79.053 10.78 79.053 11.1C79.053 11.4067 79.1796 11.64 79.433 11.8C79.6863 11.96 80.0996 12.0733 80.673 12.14L81.533 12.22C82.8796 12.3667 83.9263 12.74 84.673 13.34C85.4196 13.94 85.793 14.7467 85.793 15.76C85.793 16.4933 85.593 17.1333 85.193 17.68C84.793 18.2133 84.2263 18.6267 83.493 18.92C82.7596 19.2 81.8996 19.34 80.913 19.34ZM87.8663 19V4.4H91.0663V12.82H90.5863C90.5863 11.7133 90.7263 10.78 91.0063 10.02C91.2863 9.26 91.6996 8.68667 92.2463 8.3C92.7929 7.9 93.4796 7.7 94.3063 7.7H94.4463C95.6596 7.7 96.5863 8.13333 97.2263 9C97.8663 9.85333 98.1863 11.1067 98.1863 12.76V19H94.9863V12.56C94.9863 11.96 94.8063 11.48 94.4463 11.12C94.0996 10.7467 93.6396 10.56 93.0663 10.56C92.4663 10.56 91.9796 10.7533 91.6063 11.14C91.2463 11.5267 91.0663 12.04 91.0663 12.68V19H87.8663Z" fill="black"/>
<circle cx="25" cy="5.29999" r="2" fill="#FF869E"/>
<circle cx="71.7998" cy="5.29999" r="2" fill="#55CDFC"/>
<path d="M49 19V14L45.75 16.5V19H49Z" fill="#55CDFC"/>
</svg>
